<svg width="565" height="132" viewBox="0 0 565 132" fill="none" xmlns="http://www.w3.org/2000/svg">
<g filter="url(#filter0_i_19_8)">
<path d="M296.913 85.5507C298.409 85.6233 299.937 85.6756 301.484 85.6756C303.047 85.6756 304.591 85.6408 306.106 85.5507C304.591 87.6432 303.096 89.4944 301.514 91.2585L301.535 91.2353C299.961 89.4915 298.45 87.6374 297.025 85.7076L296.913 85.5507ZM281.422 83.2257C284.366 84.0249 287.958 84.7049 291.623 85.1234L291.979 85.1554C294.222 88.4482 296.489 91.3457 298.923 94.0718L298.893 94.0369C295.328 98.2888 290.519 101.276 285.079 102.349L284.929 102.372C284.918 102.372 284.907 102.372 284.897 102.372C284.222 102.372 283.586 102.195 283.029 101.881L283.051 101.893C280.789 100.512 279.807 95.2314 280.571 88.4453C280.753 86.7742 281.052 85.0159 281.419 83.2228L281.422 83.2257ZM321.613 83.1879C321.934 84.5655 322.236 86.3208 322.451 88.1053L322.475 88.3552C323.255 95.1384 322.293 100.413 320.05 101.823C319.55 102.119 318.952 102.294 318.315 102.294C318.253 102.294 318.19 102.291 318.128 102.288H318.136C312.554 101.198 307.748 98.2306 304.192 94.0311L304.173 94.0079C306.562 91.3254 308.813 88.4337 310.877 85.3908L311.035 85.1467C315.048 84.6991 318.644 84.0074 322.149 83.0629L321.613 83.185V83.1879ZM284.6 72.3418C285.28 73.7658 285.992 75.1841 286.775 76.6081C287.556 78.0245 288.355 79.4078 289.17 80.7583C286.811 80.3892 284.532 79.9242 282.355 79.3575C282.966 77.0702 283.733 74.7016 284.598 72.336L284.6 72.3418ZM318.389 72.2691C319.289 74.6551 320.053 77.0354 320.686 79.3429C318.511 79.9125 316.214 80.395 313.838 80.7583C314.653 79.3952 315.469 77.9915 316.233 76.5529C316.997 75.1376 317.712 73.6903 318.394 72.2662L318.389 72.2691ZM278.714 56.7236C279.9 61.019 281.172 64.6111 282.654 68.0754L282.45 67.5465C281.183 70.4672 279.929 74.039 278.902 77.7154L278.76 78.3112C276.841 77.6805 275.297 77.0615 273.793 76.3669L274.106 76.4948C268.222 73.8181 264.416 70.2987 264.416 67.5087C264.416 64.7187 268.222 61.1818 274.106 58.5167C275.533 57.8628 277.099 57.2729 278.714 56.7236ZM324.223 56.709C325.868 57.2525 327.431 57.8599 328.894 58.5167C334.777 61.205 338.584 64.7187 338.584 67.5087C338.567 70.2987 334.761 73.8269 328.878 76.4977C327.45 77.1516 325.887 77.7387 324.275 78.288C323.079 73.978 321.806 70.3888 320.33 66.9187L320.537 67.4651C321.798 64.5472 323.054 60.9754 324.079 57.299L324.223 56.7003V56.709ZM313.816 54.2591C316.179 54.634 318.454 55.0932 320.632 55.6657C320.02 57.9616 319.256 60.3215 318.389 62.6872C317.709 61.2719 316.997 59.8449 316.214 58.4237C315.45 56.9997 314.634 55.6134 313.819 54.262L313.816 54.2591ZM289.151 54.2591C288.336 55.6279 287.52 57.0287 286.759 58.4731C285.995 59.8885 285.28 61.3125 284.6 62.7366C283.7 60.3535 282.936 57.9791 282.303 55.6657C284.478 55.1222 286.77 54.6369 289.149 54.2649L289.151 54.2591ZM301.5 53.3349C304.015 53.3349 306.519 53.457 308.982 53.672C310.361 55.7858 311.701 58.0372 313 60.4261C314.264 62.7511 315.416 65.1071 316.459 67.4941C315.412 69.8744 314.265 72.2517 313.017 74.5767C311.725 76.9743 310.39 79.2557 309.006 81.3686C306.532 81.5982 304.026 81.7231 301.497 81.7231C298.982 81.7231 296.478 81.5953 294.015 81.386C292.637 79.2732 291.291 77.0121 289.997 74.6319C288.734 72.3069 287.581 69.9509 286.539 67.5639C287.569 65.1779 288.733 62.7947 289.981 60.4668C291.272 58.0692 292.607 55.7965 293.991 53.6836C296.465 53.4511 298.972 53.3291 301.5 53.3291V53.3349ZM301.448 43.7995C303.025 45.5432 304.537 47.3945 305.959 49.3243L306.067 49.4783C304.572 49.4056 303.044 49.3562 301.497 49.3562C299.934 49.3562 298.39 49.3911 296.875 49.4783C298.387 47.3858 299.882 45.5345 301.467 43.7704L301.446 43.7937L301.448 43.7995ZM284.861 32.7209C290.443 33.8136 295.247 36.7809 298.806 40.9775L298.825 41.0008C296.435 43.6861 294.184 46.5779 292.12 49.6265L291.963 49.8706C287.952 50.3153 284.356 51.0012 280.854 51.9457L281.387 51.8236C281.006 50.045 280.723 48.3216 280.525 46.668C279.745 39.8848 280.707 34.6099 282.95 33.2062C283.51 32.9243 284.165 32.7499 284.856 32.7267H284.864L284.861 32.7209ZM318.057 32.6482V32.6715C318.093 32.6715 318.133 32.6686 318.177 32.6686C318.827 32.6686 319.438 32.84 319.977 33.1423L319.955 33.1306C322.217 34.5169 323.198 39.7947 322.434 46.5837C322.252 48.2548 321.953 50.016 321.586 51.812C318.636 51.0041 315.045 50.3211 311.38 49.9055L311.032 49.8736C308.786 46.5779 306.519 43.6803 304.086 40.9514L304.118 40.9862C307.682 36.7431 312.484 33.7555 317.913 32.6773L318.065 32.6511L318.057 32.6482ZM318.073 28.6899C311.434 29.7681 305.687 33.2149 301.489 38.1875L301.467 38.2137C297.24 33.244 291.492 29.8204 285.016 28.7829L284.864 28.7626C284.829 28.7626 284.785 28.7626 284.742 28.7626C283.407 28.7626 282.153 29.1375 281.069 29.7943L281.107 29.7739C276.436 32.654 275.389 41.6285 277.801 52.8902C267.459 56.3051 260.732 61.763 260.732 67.5145C260.732 73.2892 267.494 78.7617 277.866 82.1504C275.473 93.4557 276.542 102.445 281.224 105.322C282.251 105.953 283.486 106.322 284.799 106.322C284.859 106.322 284.918 106.322 284.975 106.319H284.967C291.606 105.241 297.354 101.791 301.552 96.8153L301.573 96.7891C305.801 101.762 311.548 105.185 318.025 106.223L318.177 106.243C318.218 106.243 318.269 106.243 318.318 106.243C319.645 106.243 320.893 105.871 321.972 105.223L321.934 105.243C326.602 102.366 327.652 93.3917 325.24 82.1271C335.544 78.7413 342.27 73.2718 342.27 67.5116C342.27 61.7369 335.509 56.2644 325.137 52.867C327.529 41.5733 326.461 32.5756 321.779 29.6955C320.741 29.059 319.495 28.6841 318.169 28.6841C318.133 28.6841 318.098 28.6841 318.063 28.6841H318.068L318.073 28.6899ZM309.077 67.5145C309.077 71.9988 305.676 75.6345 301.481 75.6345C297.286 75.6345 293.885 71.9988 293.885 67.5145C293.885 63.0301 297.286 59.3944 301.481 59.3944C303.58 59.3944 305.478 60.3041 306.853 61.7717C308.229 63.2423 309.077 65.2709 309.077 67.5145Z" fill="#AE6FFF"/>
</g>
<path d="M76.832 46.704L76.064 46.768C76.5333 59.9947 77.024 69.488 77.536 75.248C77.664 76.656 78.2613 78.0427 79.328 79.408C80.3947 80.7733 80.928 81.9467 80.928 82.928C80.928 83.8667 80.6293 84.6773 80.032 85.36C79.4773 86.0427 78.7093 86.384 77.728 86.384C76.7893 86.384 75.9787 85.808 75.296 84.656C74.656 83.4613 74.272 82.1813 74.144 80.816C73.12 66.608 71.84 55.8347 70.304 48.496C66.4213 50.4587 62.624 53.8507 58.912 58.672C62.2827 64.0053 63.968 68.5493 63.968 72.304C63.968 76.016 62.7093 79.2373 60.192 81.968C57.6747 84.656 55.328 86 53.152 86C50.976 86 49.2907 85.296 48.096 83.888C46.944 82.48 46.368 80.752 46.368 78.704C46.368 76.6133 47.0507 73.9893 48.416 70.832C49.824 67.632 51.6587 64.304 53.92 60.848C51.9573 57.904 49.696 55.3013 47.136 53.04C44.576 50.7787 42.08 49.2213 39.648 48.368C39.648 48.496 39.4773 49.6907 39.136 51.952C37.6427 61.296 36.6187 73.584 36.064 88.816C35.8507 95.6853 35.68 99.6747 35.552 100.784C35.4667 101.893 35.1253 102.747 34.528 103.344C33.9307 103.984 33.2267 104.304 32.416 104.304C31.648 104.304 30.9227 103.984 30.24 103.344C29.6 102.747 29.28 101.744 29.28 100.336C29.28 98.9707 29.856 94.8747 31.008 88.048C33.3973 73.8827 34.6773 60.3787 34.848 47.536C33.0987 47.152 32.224 46.064 32.224 44.272C32.224 43.4613 32.608 42.8 33.376 42.288C34.144 41.7333 35.0827 41.456 36.192 41.456C39.4773 41.456 43.0187 42.864 46.816 45.68C50.656 48.4533 54.112 51.952 57.184 56.176C60.4267 51.8667 63.776 48.3467 67.232 45.616C70.688 42.8427 73.888 41.456 76.832 41.456C78.8373 41.456 79.84 42.2667 79.84 43.888C79.84 44.656 79.4987 45.3173 78.816 45.872C78.176 46.4267 77.5147 46.704 76.832 46.704ZM58.912 74.544C58.912 71.3013 57.7813 67.632 55.52 63.536C52.064 69.0827 50.336 73.264 50.336 76.08C50.336 77.616 50.72 78.96 51.488 80.112C52.2987 81.264 53.3013 81.84 54.496 81.84C55.6907 81.84 56.7147 81.0933 57.568 79.6C58.464 78.064 58.912 76.3787 58.912 74.544ZM118.511 66.8L107.759 66.48C106.564 66.48 103.151 66.5653 97.5185 66.736C96.6652 68.528 95.5345 70.9813 94.1265 74.096C89.9878 83.312 85.8918 90.992 81.8385 97.136C78.5532 102.085 76.0785 104.56 74.4145 104.56C73.6892 104.56 73.0918 104.304 72.6225 103.792C72.1532 103.323 71.9185 102.661 71.9185 101.808C71.9185 100.955 72.3878 99.952 73.3265 98.8C74.2225 97.648 75.3745 96.3893 76.7825 95.024C78.1478 93.7013 79.9612 91.4827 82.2225 88.368C84.4412 85.2533 86.5745 81.6693 88.6225 77.616C88.9638 76.976 90.6918 73.3707 93.8065 66.8H93.4865C92.8038 66.8 92.2065 66.608 91.6945 66.224C91.2252 65.7973 90.9905 65.2213 90.9905 64.496C90.9905 63.7707 91.2465 63.1733 91.7585 62.704C92.2705 62.2347 92.9318 62 93.7425 62C94.5958 62 95.4065 62.0213 96.1745 62.064C100.1 54.0427 103.684 48.496 106.927 45.424C99.3318 46.0213 95.2145 46.32 94.5745 46.32C93.9772 46.32 93.4012 46.1067 92.8465 45.68C92.3345 45.2533 92.0785 44.6987 92.0785 44.016C92.0785 43.2907 92.3345 42.6933 92.8465 42.224C93.4012 41.712 93.9985 41.456 94.6385 41.456L108.591 41.84L123.759 41.456C124.527 41.456 125.145 41.6907 125.615 42.16C126.084 42.6293 126.319 43.248 126.319 44.016C126.319 44.7413 126.063 45.3173 125.551 45.744C125.081 46.128 124.463 46.32 123.694 46.32H122.159C122.159 53.1467 122.436 59.312 122.991 64.816C123.545 70.32 124.1 74.5653 124.655 77.552C125.209 80.5387 125.487 82.4373 125.487 83.248C125.487 84.016 125.231 84.7413 124.719 85.424C124.249 86.064 123.609 86.384 122.799 86.384C121.988 86.384 121.284 86.0853 120.687 85.488C120.089 84.8907 119.748 84.0373 119.663 82.928L118.511 66.8ZM117.359 45.552L115.439 45.488C110.361 46.128 105.156 51.6747 99.8225 62.128C104.345 62.2133 107.204 62.256 108.399 62.256C109.636 62.256 112.9 62.1707 118.191 62C117.636 54.6613 117.359 49.1787 117.359 45.552ZM164.572 77.296L164.06 68.016C164.06 67.1627 164.337 66.416 164.892 65.776C165.489 65.0933 166.236 64.752 167.132 64.752C168.028 64.752 168.753 65.0933 169.308 65.776C169.905 66.416 170.204 67.1627 170.204 68.016C170.204 68.144 170.097 69.7867 169.884 72.944C169.713 76.1013 169.628 79.7493 169.628 83.888C169.628 87.984 169.713 91.8027 169.884 95.344C170.097 98.8853 170.204 100.976 170.204 101.616C170.204 102.256 169.905 102.896 169.308 103.536C168.753 104.176 168.028 104.496 167.132 104.496C166.236 104.496 165.489 104.176 164.892 103.536C164.337 102.896 164.06 102.235 164.06 101.552C164.06 100.869 164.145 98.7573 164.316 95.216C164.487 91.7173 164.593 88.0267 164.636 84.144V81.456C160.54 84.7413 156.231 86.384 151.708 86.384C146.161 86.384 141.489 84.4 137.692 80.432C133.937 76.4213 132.06 71.5787 132.06 65.904C132.06 58.8213 134.172 52.976 138.396 48.368C142.663 43.76 148.081 41.456 154.652 41.456C158.449 41.456 161.927 42.224 165.084 43.76C168.284 45.2533 169.884 46.9813 169.884 48.944C169.884 49.7973 169.585 50.5227 168.988 51.12C168.433 51.7173 167.751 52.016 166.94 52.016C166.129 52.016 165.319 51.696 164.508 51.056C163.697 50.416 162.908 49.712 162.14 48.944C161.415 48.1333 160.241 47.408 158.62 46.768C157.041 46.128 155.164 45.808 152.988 45.808C148.081 45.808 144.241 47.3653 141.468 50.48C138.695 53.5947 137.308 57.712 137.308 62.832C137.308 67.952 138.823 72.432 141.852 76.272C144.924 80.112 148.913 82.032 153.82 82.032C157.66 82.032 161.244 80.4533 164.572 77.296ZM186.678 81.52L190.262 81.84C190.603 78.5547 190.774 72.56 190.774 63.856C190.774 55.1093 190.603 49.1147 190.262 45.872C189.323 45.744 188.022 45.68 186.358 45.68C184.737 45.68 183.179 46.0853 181.686 46.896C180.235 47.664 179.51 48.7307 179.51 50.096C179.51 52.3147 180.299 53.424 181.878 53.424C182.518 53.424 183.03 53.6373 183.414 54.064C183.798 54.4907 183.99 55.024 183.99 55.664C183.99 56.304 183.755 56.8373 183.286 57.264C182.817 57.648 182.177 57.84 181.366 57.84C179.873 57.84 178.593 57.2213 177.526 55.984C176.502 54.704 175.99 53.1253 175.99 51.248C175.99 49.3707 176.545 47.728 177.654 46.32C178.806 44.8693 180.321 43.824 182.198 43.184C185.654 42.032 189.089 41.456 192.502 41.456C195.958 41.456 198.475 41.6693 200.054 42.096C201.675 42.5227 202.486 43.3547 202.486 44.592C202.486 45.3173 202.209 45.8933 201.654 46.32C201.142 46.7467 200.545 46.96 199.862 46.96L196.15 46.448C195.894 49.3067 195.766 55.1093 195.766 63.856C195.766 72.56 195.937 78.5547 196.278 81.84L199.862 81.52C200.545 81.52 201.142 81.7333 201.654 82.16C202.209 82.5867 202.486 83.184 202.486 83.952C202.486 84.72 202.209 85.3173 201.654 85.744C201.099 86.1707 200.459 86.384 199.734 86.384L193.27 85.936L186.806 86.384C186.081 86.384 185.441 86.1707 184.886 85.744C184.331 85.3173 184.054 84.72 184.054 83.952C184.054 83.184 184.31 82.5867 184.822 82.16C185.377 81.7333 185.995 81.52 186.678 81.52ZM236.543 57.968L239.231 58.544C240.596 58.544 241.279 57.5627 241.279 55.6C241.279 53.5947 239.999 51.4613 237.439 49.2C234.922 46.9387 231.722 45.808 227.839 45.808C222.975 45.808 219.156 47.344 216.383 50.416C213.61 53.4453 212.223 57.584 212.223 62.832C212.223 68.0373 213.759 72.5387 216.831 76.336C219.903 80.1333 223.828 82.032 228.607 82.032C233.386 82.032 237.652 79.7707 241.407 75.248C242.218 74.224 242.836 73.712 243.263 73.712C243.69 73.712 244.01 73.8613 244.223 74.16C244.479 74.416 244.607 74.8213 244.607 75.376C244.607 75.9307 244.159 76.8267 243.263 78.064C242.41 79.2587 241.236 80.496 239.743 81.776C238.292 83.0133 236.372 84.1013 233.983 85.04C231.636 85.936 229.183 86.384 226.623 86.384C220.991 86.384 216.298 84.3787 212.543 80.368C208.831 76.3573 206.975 71.1947 206.975 64.88C206.975 58.5227 209.108 53.04 213.375 48.432C217.684 43.7813 223.039 41.456 229.439 41.456C233.919 41.456 237.588 42.6293 240.447 44.976C243.348 47.28 244.799 50.2027 244.799 53.744C244.799 56.56 243.924 58.9067 242.175 60.784C240.468 62.6187 238.655 63.536 236.735 63.536C235.711 63.536 234.943 63.2587 234.431 62.704C233.962 62.1493 233.727 61.5093 233.727 60.784C233.727 60.0587 234.004 59.4187 234.559 58.864C235.156 58.2667 235.818 57.968 236.543 57.968Z" fill="#AE6FFF"/>
<path d="M367.224 62.448C367.224 67.2267 367.309 71.7707 367.48 76.08C367.693 80.3467 367.8 82.8 367.8 83.44C367.8 84.0373 367.501 84.6773 366.904 85.36C366.349 86.0427 365.624 86.384 364.728 86.384C363.832 86.384 363.085 86.0427 362.488 85.36C361.933 84.6773 361.656 83.9733 361.656 83.248C361.656 82.5227 361.741 80.2827 361.912 76.528C362.083 72.7733 362.189 68.976 362.232 65.136C361.592 65.776 361.016 66.096 360.504 66.096C359.352 66.096 358.776 65.52 358.776 64.368C358.776 62.6613 359.907 61.0613 362.168 59.568C362.125 56.0693 362.019 52.848 361.848 49.904C361.72 46.96 361.656 45.168 361.656 44.528C361.656 43.888 361.933 43.2267 362.488 42.544C363.085 41.8613 363.832 41.52 364.728 41.52C365.624 41.52 366.349 41.8613 366.904 42.544C367.501 43.2267 367.8 43.9093 367.8 44.592C367.8 45.232 367.715 46.8747 367.544 49.52C367.373 52.1227 367.267 54.896 367.224 57.84C367.437 57.7973 368.013 57.776 368.952 57.776C369.933 57.776 371.171 58.1173 372.664 58.8C374.157 59.44 375.395 60.144 376.376 60.912C378.936 63.0453 380.941 64.112 382.392 64.112C383.843 64.112 385.016 63.7067 385.912 62.896C385.869 58.3307 385.763 54.256 385.592 50.672C385.421 47.088 385.336 45.0187 385.336 44.464C385.336 43.8667 385.613 43.2267 386.168 42.544C386.765 41.8613 387.512 41.52 388.408 41.52C389.304 41.52 390.029 41.8613 390.584 42.544C391.181 43.2267 391.48 43.9947 391.48 44.848C391.48 44.976 391.373 46.9387 391.16 50.736C390.989 54.5333 390.904 58.7147 390.904 63.28C390.904 67.8453 390.989 72.1547 391.16 76.208C391.373 80.2613 391.48 82.6293 391.48 83.312C391.48 83.9947 391.181 84.6773 390.584 85.36C390.029 86.0427 389.304 86.384 388.408 86.384C387.512 86.384 386.765 86.0427 386.168 85.36C385.613 84.6773 385.336 83.9307 385.336 83.12C385.336 82.3093 385.4 80.304 385.528 77.104C385.699 73.904 385.805 70.7893 385.848 67.76C384.739 68.3573 383.416 68.656 381.88 68.656C380.344 68.656 378.829 68.336 377.336 67.696C375.843 67.056 374.669 66.3733 373.816 65.648C371.469 63.6 369.272 62.5333 367.224 62.448ZM403.089 41.456L416.017 41.84L428.945 41.456C429.628 41.456 430.225 41.6907 430.737 42.16C431.292 42.5867 431.569 43.184 431.569 43.952C431.569 44.72 431.292 45.3387 430.737 45.808C430.225 46.2347 429.628 46.448 428.945 46.448L416.017 46.064C414.908 46.064 413.116 46.1067 410.641 46.192C410.641 46.704 410.598 47.6213 410.513 48.944C410.257 52.912 410.129 56.624 410.129 60.08C410.982 60.1653 412.433 60.2507 414.481 60.336C415.633 57.904 417.34 55.9413 419.601 54.448C421.862 52.912 423.996 52.144 426.001 52.144C428.561 52.144 429.841 53.1893 429.841 55.28C429.841 55.9627 429.585 56.56 429.073 57.072C428.604 57.5413 428.092 57.776 427.537 57.776C427.025 57.776 426.364 57.52 425.553 57.008C424.785 56.496 423.825 56.24 422.673 56.24C421.521 56.24 420.369 56.624 419.217 57.392C418.065 58.16 417.212 59.1413 416.657 60.336C418.364 60.336 420.241 60.272 422.289 60.144C424.337 60.016 425.574 59.952 426.001 59.952C426.47 59.952 426.918 60.1653 427.345 60.592C427.772 61.0187 427.985 61.5733 427.985 62.256C427.985 62.9387 427.772 63.5147 427.345 63.984C426.918 64.4107 426.364 64.624 425.681 64.624L416.785 64.304H416.145C416.444 65.968 417.233 67.3547 418.513 68.464C419.793 69.5307 421.18 70.064 422.673 70.064C424.166 70.064 425.553 69.616 426.833 68.72C428.113 67.7813 428.817 67.312 428.945 67.312C429.542 67.312 429.841 67.6107 429.841 68.208C429.841 68.6347 429.478 69.2533 428.753 70.064C428.07 70.832 426.94 71.6 425.361 72.368C423.825 73.136 422.076 73.52 420.113 73.52C418.15 73.52 416.486 72.7733 415.121 71.28C413.798 69.744 413.137 68.0373 413.137 66.16C413.137 65.7333 413.18 65.136 413.265 64.368L410.129 64.56C410.129 69.7653 410.214 73.84 410.385 76.784C410.598 79.728 410.705 81.392 410.705 81.776L429.777 81.392C430.46 81.392 431.057 81.6267 431.569 82.096C432.124 82.5227 432.401 83.12 432.401 83.888C432.401 84.656 432.124 85.2747 431.569 85.744C431.057 86.1707 430.46 86.384 429.777 86.384L417.489 86C415.782 86 413.756 86.064 411.409 86.192C409.062 86.32 407.804 86.384 407.633 86.384C406.737 86.384 405.99 86.0427 405.393 85.36C404.838 84.6773 404.561 83.9947 404.561 83.312C404.561 82.6293 404.646 80.2613 404.817 76.208C405.03 72.1547 405.137 68.2507 405.137 64.496C405.137 60.6987 404.945 54.6827 404.561 46.448H403.089C402.406 46.448 401.788 46.2347 401.233 45.808C400.721 45.3387 400.465 44.72 400.465 43.952C400.465 43.184 400.721 42.5867 401.233 42.16C401.788 41.6907 402.406 41.456 403.089 41.456ZM448.122 69.168L448.698 83.056C448.698 83.9093 448.399 84.6773 447.802 85.36C447.247 86.0427 446.522 86.384 445.626 86.384C444.73 86.384 443.983 86.0427 443.385 85.36C442.831 84.6773 442.554 83.9947 442.554 83.312C442.554 82.6293 442.639 80.2613 442.81 76.208C443.023 72.1547 443.13 68.2293 443.13 64.432C443.13 60.6347 443.087 57.52 443.002 55.088C442.916 52.6133 442.81 50.6293 442.682 49.136C442.596 47.6427 442.554 46.6827 442.554 46.256H441.402C440.719 46.256 440.1 46.0427 439.546 45.616C439.034 45.1467 438.778 44.5707 438.778 43.888C438.778 43.1627 439.034 42.5867 439.546 42.16C440.1 41.6907 440.634 41.456 441.146 41.456C441.7 41.456 442.426 41.52 443.322 41.648C444.26 41.776 445.178 41.84 446.074 41.84L455.546 41.456C458.106 41.456 460.666 42.352 463.226 44.144C464.548 45.0827 465.615 46.4267 466.426 48.176C467.236 49.9253 467.642 51.952 467.642 54.256C467.642 57.968 466.66 61.0613 464.698 63.536C462.778 65.968 460.452 67.76 457.722 68.912C459.898 69.9787 462.074 71.8133 464.25 74.416C466.468 76.976 468.794 80.0693 471.226 83.696C473.7 87.3227 475.599 89.9253 476.922 91.504C478.244 93.0827 479.738 94.512 481.402 95.792C483.066 97.1147 484.239 98.096 484.922 98.736C485.604 99.4187 485.946 100.229 485.946 101.168C485.946 102.107 485.583 102.896 484.858 103.536C484.132 104.219 483.172 104.56 481.978 104.56C480.356 104.56 478.564 103.344 476.602 100.912C474.682 98.48 472.719 95.536 470.714 92.08C468.708 88.624 466.596 85.168 464.378 81.712C462.202 78.2133 459.684 75.248 456.826 72.816C453.967 70.384 451.066 69.168 448.122 69.168ZM452.41 45.872L448.698 45.936C448.698 46.4053 448.634 47.3867 448.506 48.88C448.25 52.7627 448.122 57.712 448.122 63.728V65.456C450.255 66.0533 451.748 66.352 452.602 66.352C453.498 66.352 454.33 66.288 455.098 66.16C455.866 65.9893 456.74 65.6907 457.722 65.264C458.703 64.7947 459.578 64.2187 460.346 63.536C461.114 62.8533 461.754 61.9147 462.266 60.72C462.82 59.5253 463.098 58.16 463.098 56.624C463.098 52.9547 462.052 50.2453 459.962 48.496C457.914 46.7467 455.396 45.872 452.41 45.872ZM491.967 67.056C491.156 66.16 490.751 65.1147 490.751 63.92C490.751 62.7253 491.156 61.7013 491.967 60.848C492.777 59.952 493.737 59.504 494.847 59.504C495.999 59.504 496.959 59.9307 497.727 60.784C498.537 61.6373 498.943 62.6827 498.943 63.92C498.943 65.1147 498.537 66.16 497.727 67.056C496.959 67.9093 495.999 68.336 494.847 68.336C493.737 68.336 492.777 67.9093 491.967 67.056ZM478.911 62.768C478.911 67.9307 480.425 72.432 483.455 76.272C486.527 80.112 490.452 82.032 495.231 82.032C500.009 82.032 503.785 80.5173 506.559 77.488C509.375 74.416 510.783 70.2987 510.783 65.136C510.783 59.9307 509.247 55.408 506.175 51.568C503.145 47.728 499.22 45.808 494.399 45.808C489.62 45.808 485.844 47.344 483.071 50.416C480.297 53.4453 478.911 57.5627 478.911 62.768ZM493.311 86.384C487.764 86.384 483.092 84.4 479.295 80.432C475.54 76.4213 473.663 71.5787 473.663 65.904C473.663 58.8213 475.796 52.976 480.062 48.368C484.329 43.76 489.769 41.456 496.383 41.456C501.929 41.456 506.58 43.4613 510.335 47.472C514.132 51.44 516.031 56.2613 516.031 61.936C516.031 69.0187 513.897 74.864 509.631 79.472C505.364 84.08 499.924 86.384 493.311 86.384Z" fill="#AE6FFF"/>
<defs>
<filter id="filter0_i_19_8" x="260.732" y="28.6841" width="81.538" height="81.6376" filterUnits="userSpaceOnUse" color-interpolation-filters="sRGB">
<feFlood flood-opacity="0" result="BackgroundImageFix"/>
<feBlend mode="normal" in="SourceGraphic" in2="BackgroundImageFix" result="shape"/>
<feColorMatrix in="SourceAlpha" type="matrix" values="0 0 0 0 0 0 0 0 0 0 0 0 0 0 0 0 0 0 127 0" result="hardAlpha"/>
<feOffset dy="4"/>
<feGaussianBlur stdDeviation="2"/>
<feComposite in2="hardAlpha" operator="arithmetic" k2="-1" k3="1"/>
<feColorMatrix type="matrix" values="0 0 0 0 0 0 0 0 0 0 0 0 0 0 0 0 0 0 0.25 0"/>
<feBlend mode="normal" in2="shape" result="effect1_innerShadow_19_8"/>
</filter>
</defs>
</svg>
